<svg width="16" height="16" viewBox="0 0 16 16" fill="none" xmlns="http://www.w3.org/2000/svg">
<path d="M13.7136 2.66893H4.58776C3.98136 2.66893 3.91674 1.97882 4.43865 1.86963H13.7136C13.8478 1.86963 13.982 1.87836 14.1112 1.89147C13.9273 0.685965 12.7344 -0.148277 11.447 0.0220655C11.4122 0.0264332 11.3774 0.030801 11.3427 0.0395365L2.28145 1.48527C2.16713 1.50274 2.05778 1.52021 1.94346 1.53768H1.93352C1.85399 1.55078 1.77943 1.56825 1.70488 1.59009C0.40261 1.93078 0.019882 3.05329 0.019882 3.73903V4.55144C0.00994098 4.63442 0 4.71741 0 4.80477V11.2123C0 12.3916 1.02392 13.3481 2.28642 13.3481H13.7136C14.9761 13.3481 16 12.3916 16 11.2123V4.80477C16 3.62547 14.9761 2.66893 13.7136 2.66893V2.66893ZM12.0186 9.07644C11.3874 9.07644 10.8754 8.60035 10.8754 8.0107C10.8754 7.42106 11.3874 6.94497 12.0186 6.94497C12.6499 6.94497 13.1619 7.42106 13.1619 8.0107C13.1619 8.60035 12.6499 9.07644 12.0186 9.07644Z" fill="#5546FF"/>
<path d="M2.28134 15.4556C2.28134 15.9404 2.90762 16.1806 3.27046 15.8399L6.23785 13.0664L2.27637 13.0882V15.4556H2.28134Z" fill="#5546FF"/>
</svg>
