<svg width="375" height="1080" viewBox="0 0 375 1080" fill="none" xmlns="http://www.w3.org/2000/svg">
<rect width="375" height="1080" />
<path d="M179.483 518.312H173.858V516.016H178.28V514.594H169.842V512.766H177.952V508.234H168.077V509.641H176.233V511.391H168.108V516.016H172.139V518.312H166.577V519.75H179.483V518.312ZM191.789 508.641H181.914V510.047H190.055V510.234C190.055 512.07 190.055 514.117 189.508 516.891L191.273 517.047C191.789 514.07 191.789 512.125 191.789 510.234V508.641ZM180.555 519.453H193.43V518.031H180.555V519.453ZM206.298 507.281H204.548V517.484H206.298V507.281ZM194.783 511.734C194.783 513.82 196.447 515.281 198.595 515.281C200.744 515.281 202.4 513.82 202.392 511.734C202.4 509.68 200.744 508.211 198.595 508.203C196.447 508.211 194.783 509.68 194.783 511.734ZM196.486 511.734C196.478 510.516 197.384 509.719 198.595 509.719C199.775 509.719 200.689 510.516 200.689 511.734C200.689 512.984 199.775 513.766 198.595 513.766C197.384 513.766 196.478 512.984 196.486 511.734ZM196.955 521.109H206.689V519.703H198.705V516.453H196.955V521.109Z" fill="white"/>
<path d="M206.211 438.259H175.459C173.416 438.259 173.198 435.606 174.957 435.186H206.211C206.663 435.186 207.115 435.22 207.551 435.27C206.931 430.637 202.911 427.43 198.573 428.085C198.456 428.102 198.339 428.118 198.221 428.152L167.688 433.709C167.303 433.776 166.934 433.843 166.549 433.91H166.515C166.247 433.961 165.996 434.028 165.745 434.112C161.357 435.421 160.067 439.736 160.067 442.372V445.494C160.033 445.813 160 446.132 160 446.468V471.097C160 475.63 163.45 479.307 167.705 479.307H206.211C210.465 479.307 213.915 475.63 213.915 471.097V446.468C213.915 441.935 210.465 438.259 206.211 438.259ZM200.499 462.887C198.372 462.887 196.647 461.057 196.647 458.791C196.647 456.525 198.372 454.695 200.499 454.695C202.626 454.695 204.351 456.525 204.351 458.791C204.351 461.057 202.626 462.887 200.499 462.887Z" fill="#5546FF"/>
<path d="M167.688 487.409C167.688 489.272 169.798 490.196 171.021 488.886L181.02 478.226L167.671 478.31V487.409H167.688Z" fill="#5546FF"/>
<path d="M118.591 524.863C116.511 523.622 114.221 523.002 111.756 523.002C110.295 523.002 108.785 523.349 107.249 524.032C106.234 524.479 105.38 525.025 104.699 525.62L104.649 512.787C104.649 512.303 104.463 511.869 104.117 511.534C103.77 511.186 103.337 511 102.866 511H100.093C99.6221 511 99.2011 511.174 98.842 511.509C98.4705 511.856 98.26 512.303 98.26 512.762C98.2229 513.817 98.1733 516.089 98.0991 519.589C98.0248 523.002 98 526.39 98 529.667C98 532.943 98.0495 535.475 98.161 537.349C98.2724 539.744 98.9534 541.954 100.179 543.915C101.405 545.876 103.052 547.464 105.095 548.619C107.138 549.773 109.379 550.369 111.756 550.369C114.134 550.369 116.511 549.748 118.591 548.544C120.659 547.328 122.331 545.652 123.532 543.555C124.745 541.457 125.352 539.149 125.352 536.679C125.352 534.209 124.733 531.913 123.519 529.84C122.306 527.768 120.647 526.092 118.579 524.863H118.591ZM118.653 536.691C118.653 537.945 118.331 539.112 117.712 540.166C117.081 541.221 116.226 542.078 115.162 542.711C113.044 543.989 110.345 543.952 108.277 542.711C107.225 542.078 106.37 541.221 105.739 540.166C105.107 539.112 104.798 537.945 104.798 536.691C104.798 535.438 105.107 534.246 105.714 533.179C106.321 532.112 107.175 531.255 108.24 530.647C109.305 530.039 110.469 529.729 111.695 529.729C112.92 529.729 114.109 530.051 115.162 530.672C116.214 531.305 117.068 532.161 117.7 533.216C118.331 534.271 118.641 535.438 118.641 536.691H118.653Z" fill="#52596B"/>
<path d="M166.745 530.2C167.241 529.828 167.847 529.567 168.553 529.455C168.999 529.393 169.321 529.356 169.544 529.356C171.352 529.356 172.837 530.113 174.113 531.664C174.459 532.074 174.942 532.285 175.512 532.285C175.71 532.285 175.933 532.235 176.218 532.136L178.657 530.709C179.227 530.361 179.536 529.828 179.536 529.182C179.536 528.81 179.437 528.487 179.264 528.264C176.676 524.18 172.652 522.48 167.6 523.212C165.074 523.622 163.056 524.64 161.607 526.216C160.146 527.817 159.403 529.629 159.403 531.59C159.403 533.104 159.873 534.531 160.79 535.847C161.706 537.15 163.056 538.168 164.826 538.888C165.643 539.223 166.919 539.583 168.727 539.98C170.113 540.241 171.116 540.551 171.735 540.874C172.169 541.109 172.367 541.469 172.367 542.028C172.367 542.413 172.268 542.897 171.475 543.319C170.051 544.076 168.343 544.15 166.547 543.343C165.705 542.971 165.012 542.487 164.504 541.916C163.984 541.308 163.216 541.072 162.387 541.482L159.824 542.872C159.489 543.021 158.92 543.43 158.92 544.436C158.92 544.845 158.994 545.143 159.143 545.366C160.22 547.042 161.669 548.333 163.415 549.164C165.148 549.996 166.993 550.418 168.912 550.418C170.646 550.418 172.293 550.095 173.816 549.475C175.376 548.829 176.651 547.898 177.617 546.682C178.607 545.441 179.115 543.989 179.115 542.4C179.115 541.556 178.979 540.725 178.706 539.918C178.323 538.714 177.691 537.721 176.837 537.001C176.02 536.294 175.128 535.773 174.175 535.425C173.283 535.102 172.107 534.755 170.683 534.407C169.432 534.134 168.467 533.874 167.81 533.625C167.228 533.402 166.795 533.092 166.448 532.682C166.151 532.31 166.027 531.789 166.089 531.094C166.114 530.758 166.461 530.436 166.745 530.212V530.2Z" fill="#52596B"/>
<path d="M192.077 524.852C191.768 524.541 191.372 524.38 190.926 524.38H187.892C187.471 524.38 187.075 524.541 186.741 524.839C186.394 525.149 186.208 525.584 186.208 526.055L186.047 533.08V540.328L186.208 548.756C186.208 549.215 186.394 549.612 186.741 549.935C187.063 550.233 187.459 550.381 187.892 550.381H190.926C191.359 550.381 191.756 550.22 192.077 549.897C192.387 549.587 192.548 549.19 192.548 548.768L192.758 540.304V533.055L192.548 526.068C192.548 525.596 192.387 525.174 192.065 524.864L192.077 524.852Z" fill="#52596B"/>
<path d="M186.57 513.954C185.79 514.736 185.381 515.704 185.381 516.809C185.381 517.914 185.778 518.882 186.57 519.639C187.35 520.408 188.304 520.793 189.406 520.793C190.508 520.793 191.473 520.396 192.253 519.601C193.033 518.82 193.442 517.876 193.442 516.797C193.442 515.717 193.046 514.724 192.253 513.942C190.681 512.366 188.118 512.366 186.558 513.942L186.57 513.954Z" fill="#52596B"/>
<path d="M153.384 524.677C153.384 524.193 153.199 523.771 152.852 523.448C152.53 523.151 152.134 522.989 151.7 522.989H148.828C148.357 522.989 147.936 523.151 147.627 523.473C147.317 523.784 147.156 524.206 147.156 524.677L146.946 538.603C146.946 540.34 146.45 541.631 145.435 542.587C144.407 543.53 143.243 544.002 141.881 544.014C140.519 544.014 139.355 543.542 138.328 542.587C137.312 541.643 136.817 540.34 136.817 538.603L136.607 524.677C136.607 524.206 136.446 523.796 136.136 523.473C135.827 523.163 135.406 522.989 134.935 522.989H132.062C131.629 522.989 131.233 523.151 130.911 523.448C130.564 523.759 130.378 524.181 130.378 524.677L130.168 538.627C130.168 540.663 130.601 542.587 131.468 544.349C132.347 546.149 133.684 547.613 135.455 548.718C137.226 549.822 139.38 550.369 141.881 550.369C144.383 550.369 146.537 549.81 148.308 548.718C150.078 547.613 151.416 546.149 152.295 544.349C153.162 542.574 153.595 540.65 153.595 538.627L153.384 524.677Z" fill="#52596B"/>
<path d="M221.995 548.755C221.995 549.239 221.809 549.661 221.462 549.984C221.14 550.281 220.744 550.443 220.311 550.443H217.438C216.968 550.443 216.547 550.281 216.237 549.959C215.927 549.648 215.767 549.226 215.767 548.755L215.556 534.829C215.556 533.092 215.061 531.801 214.045 530.845C213.018 529.902 211.854 529.43 210.492 529.418C209.13 529.418 207.966 529.89 206.938 530.845C205.923 531.789 205.427 533.092 205.427 534.829L205.217 548.755C205.217 549.226 205.056 549.636 204.746 549.959C204.437 550.269 204.016 550.443 203.545 550.443H200.673C200.239 550.443 199.843 550.281 199.521 549.984C199.175 549.673 198.989 549.251 198.989 548.755L198.778 534.805C198.778 532.769 199.212 530.845 200.078 529.083C200.958 527.283 202.295 525.819 204.065 524.714C205.836 523.61 207.991 523.063 210.492 523.063C212.993 523.063 215.147 523.622 216.918 524.714C218.689 525.819 220.026 527.283 220.905 529.083C221.772 530.858 222.205 532.781 222.205 534.805L221.995 548.755Z" fill="#52596B"/>
<path d="M274.179 536.99C273.362 536.282 272.47 535.761 271.517 535.413C270.625 535.091 269.462 534.756 268.025 534.396C266.775 534.123 265.809 533.862 265.153 533.614C264.571 533.39 264.137 533.08 263.791 532.658C263.493 532.286 263.37 531.764 263.431 531.069C263.456 530.734 263.803 530.412 264.088 530.188C264.583 529.816 265.19 529.555 265.895 529.444C266.341 529.381 266.663 529.344 266.886 529.344C268.694 529.344 270.18 530.101 271.455 531.653C271.802 532.062 272.285 532.273 272.854 532.273C273.052 532.273 273.275 532.224 273.56 532.124L275.999 530.697C276.569 530.35 276.878 529.816 276.878 529.17C276.878 528.798 276.779 528.475 276.606 528.252C274.018 524.169 269.994 522.468 264.942 523.201C262.416 523.61 260.398 524.628 258.949 526.204C257.488 527.805 256.745 529.617 256.745 531.578C256.745 533.092 257.216 534.52 258.132 535.835C259.048 537.138 260.398 538.156 262.168 538.876C262.986 539.211 264.261 539.571 266.069 539.968C267.456 540.229 268.459 540.539 269.078 540.862C269.511 541.098 269.709 541.458 269.709 542.016C269.709 542.401 269.61 542.885 268.818 543.307C267.406 544.064 265.673 544.126 263.89 543.332C263.048 542.959 262.354 542.475 261.847 541.904C261.326 541.296 260.559 541.06 259.729 541.47L257.166 542.86C256.832 543.009 256.262 543.419 256.262 544.424C256.262 544.821 256.336 545.119 256.485 545.355C257.575 547.043 259.011 548.321 260.757 549.153C262.49 549.984 264.335 550.406 266.255 550.406C267.988 550.406 269.635 550.083 271.158 549.463C272.718 548.817 273.993 547.887 274.959 546.67C275.95 545.429 276.457 543.99 276.457 542.388C276.457 541.544 276.321 540.713 276.049 539.906C275.653 538.702 275.033 537.709 274.179 536.99Z" fill="#5546FF" fill-opacity="0.8"/>
<path d="M250.986 524.727C250.986 524.243 250.801 523.821 250.454 523.498C250.132 523.2 249.736 523.039 249.302 523.039H246.43C245.959 523.039 245.538 523.2 245.229 523.523C244.919 523.833 244.758 524.255 244.758 524.727L244.548 538.652C244.548 540.39 244.052 541.681 243.037 542.636C242.009 543.58 240.846 544.051 239.483 544.064C238.121 544.064 236.958 543.592 235.93 542.636C234.914 541.693 234.419 540.39 234.419 538.652L234.209 524.727C234.209 524.255 234.048 523.846 233.738 523.523C233.429 523.213 233.008 523.039 232.537 523.039H229.664C229.231 523.039 228.835 523.2 228.513 523.498C228.166 523.809 227.981 524.231 227.981 524.727L227.77 538.677C227.77 540.713 228.203 542.636 229.07 544.399C229.949 546.198 231.287 547.663 233.057 548.768C234.828 549.872 236.982 550.418 239.483 550.418C241.985 550.418 244.139 549.86 245.91 548.768C247.68 547.663 249.018 546.198 249.897 544.399C250.764 542.624 251.197 540.7 251.197 538.677L250.986 524.727Z" fill="#5546FF" fill-opacity="0.8"/>
<path d="M107.06 584.307H108.133V576.959H107.06V584.307ZM101.955 581C102.502 582.281 103.628 583.282 105.04 583.756L105.591 582.924C103.773 582.334 102.477 580.845 102.477 579.211V578.689H105.272V577.809H98.552V578.689H101.395V579.211C101.385 580.932 100.099 582.518 98.2716 583.166L98.8324 583.997C100.283 583.475 101.419 582.383 101.955 581ZM107.06 585.834V589.112H108.133V584.954H99.9539V585.834H107.06ZM121.001 576.959H119.928V584.297H121.001V580.961H122.829V580.062H121.001V576.959ZM115.104 581.058C115.626 582.276 116.684 583.243 118.081 583.707L118.594 582.866C116.805 582.276 115.616 580.855 115.616 579.26V578.747H118.342V577.858H111.778V578.747H114.552V579.269C114.543 581.019 113.276 582.586 111.449 583.204L112 584.065C113.46 583.538 114.581 582.45 115.104 581.058ZM117.105 584.626C114.601 584.626 113.073 585.438 113.073 586.84C113.073 588.261 114.601 589.083 117.105 589.083C119.599 589.083 121.108 588.261 121.108 586.84C121.108 585.438 119.599 584.626 117.105 584.626ZM117.105 588.222C115.268 588.222 114.137 587.71 114.146 586.84C114.137 585.989 115.268 585.486 117.105 585.486C118.942 585.486 120.063 585.989 120.063 586.84C120.063 587.71 118.942 588.222 117.105 588.222ZM133.86 576.968V585.854H134.933V576.968H133.86ZM128.368 583.785C130.185 583.794 131.549 582.566 131.549 580.797C131.549 579.047 130.185 577.819 128.368 577.819C126.55 577.819 125.177 579.047 125.177 580.797C125.177 582.566 126.55 583.794 128.368 583.785ZM126.231 580.797C126.221 579.608 127.14 578.757 128.368 578.757C129.576 578.757 130.505 579.608 130.505 580.797C130.505 582.006 129.576 582.847 128.368 582.847C127.14 582.847 126.221 582.006 126.231 580.797ZM128.155 584.945H127.082V588.841H135.31V587.952H128.155V584.945ZM143.827 581.396C146.534 581.387 148.12 580.642 148.12 579.269C148.12 577.916 146.534 577.171 143.827 577.171C141.12 577.171 139.524 577.916 139.524 579.269C139.524 580.642 141.12 581.387 143.827 581.396ZM143.827 577.983C145.848 577.983 147.027 578.467 147.027 579.269C147.027 580.11 145.848 580.575 143.827 580.575C141.816 580.575 140.636 580.11 140.646 579.269C140.636 578.467 141.816 577.983 143.827 577.983ZM138.296 583.088H149.377V582.218H138.296V583.088ZM147.946 586.859V584.142H139.64V584.964H146.892V586.066H139.669V588.977H148.313V588.126H140.723V586.859H147.946ZM165.482 589.122H166.536V576.968H165.482V589.122ZM160.512 582.518C162.33 582.528 163.635 581.512 163.635 580.033C163.635 578.544 162.33 577.539 160.512 577.548C158.695 577.539 157.399 578.544 157.399 580.033C157.399 581.512 158.695 582.528 160.512 582.518ZM160.512 578.428C161.74 578.419 162.611 579.086 162.611 580.033C162.611 580.981 161.74 581.638 160.512 581.628C159.304 581.638 158.434 580.981 158.443 580.033C158.434 579.086 159.304 578.419 160.512 578.428ZM164.583 583.117C161.885 583.514 158.762 583.562 156.481 583.562L156.626 584.471C157.641 584.466 158.811 584.456 160.048 584.403V588.735H161.122V584.345C162.291 584.268 163.5 584.142 164.66 583.93L164.583 583.117ZM174.096 578.457V576.968H173.032V578.457H169.938V579.337H177.18V578.457H174.096ZM179.413 576.968H178.34V586.076H179.413V581.88H181.241V580.971H179.413V576.968ZM176.484 582.276C176.474 580.894 175.295 580.004 173.564 580.004C171.804 580.004 170.625 580.894 170.634 582.276C170.625 583.64 171.804 584.519 173.564 584.519C175.295 584.519 176.474 583.64 176.484 582.276ZM171.659 582.276C171.65 581.406 172.413 580.845 173.564 580.845C174.695 580.845 175.459 581.406 175.469 582.276C175.459 583.127 174.695 583.678 173.564 583.669C172.413 583.678 171.65 583.127 171.659 582.276ZM171.804 585.341V588.841H179.974V587.952H172.868V585.341H171.804ZM197.124 582.238V584.162H198.197V576.959H197.124V578.941H194.272V577.887H188.693V583.282H194.272V582.238H197.124ZM189.757 582.402V578.757H193.218V582.402H189.757ZM197.124 581.348H194.272V579.82H197.124V581.348ZM194.165 584.51C191.632 584.51 190.085 585.351 190.095 586.811C190.085 588.261 191.632 589.083 194.165 589.083C196.689 589.083 198.236 588.261 198.236 586.811C198.236 585.351 196.689 584.51 194.165 584.51ZM194.165 588.232C192.299 588.232 191.149 587.691 191.158 586.811C191.149 585.892 192.299 585.36 194.165 585.351C196.022 585.36 197.172 585.892 197.172 586.811C197.172 587.691 196.022 588.232 194.165 588.232ZM205.709 578.254V576.862H204.645V578.254H201.551V579.134H208.793V578.254H205.709ZM211.026 580.188V576.959H209.953V584.278H211.026V581.116H212.854V580.188H211.026ZM208.097 581.909C208.087 580.604 206.917 579.743 205.177 579.743C203.408 579.743 202.238 580.604 202.247 581.909C202.238 583.224 203.408 584.075 205.177 584.075C206.917 584.075 208.087 583.224 208.097 581.909ZM203.272 581.909C203.263 581.106 204.026 580.575 205.177 580.575C206.308 580.575 207.072 581.106 207.082 581.909C207.072 582.731 206.308 583.243 205.177 583.253C204.026 583.243 203.263 582.731 203.272 581.909ZM211.026 588.948V584.974H203.35V588.948H211.026ZM209.963 585.834V588.068H204.403V585.834H209.963ZM216.208 584.548C216.691 584.548 217.088 584.152 217.088 583.669C217.088 583.185 216.691 582.789 216.208 582.789C215.724 582.789 215.318 583.185 215.328 583.669C215.318 584.152 215.724 584.548 216.208 584.548ZM228.739 576.959V583.195H229.812V576.959H228.739ZM226.37 580.101C226.361 578.515 225.036 577.413 223.218 577.403C221.381 577.413 220.057 578.515 220.057 580.101C220.057 581.686 221.381 582.779 223.218 582.779C225.036 582.779 226.361 581.686 226.37 580.101ZM221.111 580.101C221.101 579.047 222 578.302 223.218 578.312C224.427 578.302 225.326 579.047 225.326 580.101C225.326 581.164 224.427 581.899 223.218 581.899C222 581.899 221.101 581.164 221.111 580.101ZM222.986 586.714H229.812V583.785H221.904V584.655H228.749V585.902H221.942V588.948H230.247V588.077H222.986V586.714ZM239.722 581.019H242.177V584.2H243.251V576.959H242.177V580.13H239.722V581.019ZM236.884 580.981C237.411 582.233 238.47 583.253 239.838 583.746L240.398 582.885C238.619 582.276 237.401 580.768 237.401 579.182V578.738H240.118V577.848H233.573V578.738H236.318V579.192C236.318 580.932 235.032 582.576 233.224 583.233L233.785 584.084C235.236 583.538 236.362 582.402 236.884 580.981ZM239.219 584.577C236.686 584.577 235.139 585.409 235.148 586.84C235.139 588.271 236.686 589.093 239.219 589.102C241.742 589.093 243.289 588.271 243.289 586.84C243.289 585.409 241.742 584.577 239.219 584.577ZM239.219 588.242C237.353 588.251 236.202 587.72 236.212 586.84C236.202 585.95 237.353 585.419 239.219 585.419C241.075 585.419 242.226 585.95 242.226 586.84C242.226 587.72 241.075 588.251 239.219 588.242ZM260.913 576.959H259.83V586.105H260.913V581.831H262.692V580.913H260.913V576.959ZM257.809 582.141C258.119 580.546 258.119 579.337 258.128 578.544V577.896H252.066V578.796H257.07C257.06 579.564 257.031 580.594 256.736 582.054L257.809 582.141ZM258.998 582.876C257.737 583.05 256.344 583.146 254.996 583.204V580.594H253.932V583.238C252.994 583.262 252.105 583.267 251.322 583.272L251.428 584.162C253.594 584.152 256.523 584.104 259.066 583.669L258.998 582.876ZM253.197 585.273V588.841H261.309V587.952H254.271V585.273H253.197ZM273.761 589.131H274.825V576.959H273.761V589.131ZM266.597 582.412H271.132V578.09H265.475V578.979H270.049V581.532H265.495V586.182H266.51C268.608 586.182 270.455 586.095 272.688 585.738L272.582 584.838C270.406 585.191 268.613 585.278 266.597 585.283V582.412Z" fill="#52596B"/>
</svg>
