<svg width="375" height="1080" viewBox="0 0 375 1080" fill="none" xmlns="http://www.w3.org/2000/svg">
<path d="M207.211 438.259H176.459C174.416 438.259 174.198 435.606 175.957 435.186H207.211C207.663 435.186 208.115 435.22 208.551 435.27C207.931 430.637 203.911 427.43 199.573 428.085C199.456 428.102 199.339 428.118 199.221 428.152L168.688 433.709C168.303 433.776 167.934 433.843 167.549 433.91H167.515C167.247 433.961 166.996 434.028 166.745 434.112C162.357 435.421 161.067 439.736 161.067 442.372V445.494C161.033 445.813 161 446.132 161 446.468V471.097C161 475.63 164.45 479.307 168.705 479.307H207.211C211.465 479.307 214.915 475.63 214.915 471.097V446.468C214.915 441.935 211.465 438.259 207.211 438.259ZM201.499 462.887C199.372 462.887 197.647 461.057 197.647 458.791C197.647 456.525 199.372 454.695 201.499 454.695C203.626 454.695 205.351 456.525 205.351 458.791C205.351 461.057 203.626 462.887 201.499 462.887Z" fill="white"/>
<path d="M168.688 487.409C168.688 489.272 170.798 490.196 172.021 488.886L182.02 478.226L168.671 478.31V487.409H168.688Z" fill="white"/>
<path d="M119.591 524.863C117.511 523.622 115.221 523.002 112.756 523.002C111.295 523.002 109.785 523.349 108.249 524.032C107.234 524.479 106.38 525.025 105.699 525.62L105.649 512.787C105.649 512.303 105.463 511.869 105.117 511.534C104.77 511.186 104.337 511 103.866 511H101.093C100.622 511 100.201 511.174 99.842 511.509C99.4705 511.856 99.26 512.303 99.26 512.762C99.2229 513.817 99.1733 516.089 99.0991 519.589C99.0248 523.002 99 526.39 99 529.667C99 532.943 99.0495 535.475 99.161 537.349C99.2724 539.744 99.9534 541.954 101.179 543.915C102.405 545.876 104.052 547.464 106.095 548.619C108.138 549.773 110.379 550.369 112.756 550.369C115.134 550.369 117.511 549.748 119.591 548.544C121.659 547.328 123.331 545.652 124.532 543.555C125.745 541.457 126.352 539.149 126.352 536.679C126.352 534.209 125.733 531.913 124.519 529.84C123.306 527.768 121.647 526.092 119.579 524.863H119.591ZM119.653 536.691C119.653 537.945 119.331 539.112 118.712 540.166C118.081 541.221 117.226 542.078 116.162 542.711C114.044 543.989 111.345 543.952 109.277 542.711C108.225 542.078 107.37 541.221 106.739 540.166C106.107 539.112 105.798 537.945 105.798 536.691C105.798 535.438 106.107 534.246 106.714 533.179C107.321 532.112 108.175 531.255 109.24 530.647C110.305 530.039 111.469 529.729 112.695 529.729C113.92 529.729 115.109 530.051 116.162 530.672C117.214 531.305 118.068 532.161 118.7 533.216C119.331 534.271 119.641 535.438 119.641 536.691H119.653Z" fill="white"/>
<path d="M167.745 530.2C168.241 529.828 168.847 529.567 169.553 529.455C169.999 529.393 170.321 529.356 170.544 529.356C172.352 529.356 173.837 530.113 175.113 531.664C175.459 532.074 175.942 532.285 176.512 532.285C176.71 532.285 176.933 532.235 177.218 532.136L179.657 530.709C180.227 530.361 180.536 529.828 180.536 529.182C180.536 528.81 180.437 528.487 180.264 528.264C177.676 524.18 173.652 522.48 168.6 523.212C166.074 523.622 164.056 524.64 162.607 526.216C161.146 527.817 160.403 529.629 160.403 531.59C160.403 533.104 160.873 534.531 161.79 535.847C162.706 537.15 164.056 538.168 165.826 538.888C166.643 539.223 167.919 539.583 169.727 539.98C171.113 540.241 172.116 540.551 172.735 540.874C173.169 541.109 173.367 541.469 173.367 542.028C173.367 542.413 173.268 542.897 172.475 543.319C171.051 544.076 169.343 544.15 167.547 543.343C166.705 542.971 166.012 542.487 165.504 541.916C164.984 541.308 164.216 541.072 163.387 541.482L160.824 542.872C160.489 543.021 159.92 543.43 159.92 544.436C159.92 544.845 159.994 545.143 160.143 545.366C161.22 547.042 162.669 548.333 164.415 549.164C166.148 549.996 167.993 550.418 169.912 550.418C171.646 550.418 173.293 550.095 174.816 549.475C176.376 548.829 177.651 547.898 178.617 546.682C179.607 545.441 180.115 543.989 180.115 542.4C180.115 541.556 179.979 540.725 179.706 539.918C179.323 538.714 178.691 537.721 177.837 537.001C177.02 536.294 176.128 535.773 175.175 535.425C174.283 535.102 173.107 534.755 171.683 534.407C170.432 534.134 169.467 533.874 168.81 533.625C168.228 533.402 167.795 533.092 167.448 532.682C167.151 532.31 167.027 531.789 167.089 531.094C167.114 530.758 167.461 530.436 167.745 530.212V530.2Z" fill="white"/>
<path d="M193.077 524.852C192.767 524.541 192.371 524.38 191.925 524.38H188.892C188.471 524.38 188.075 524.541 187.74 524.839C187.394 525.149 187.208 525.584 187.208 526.055L187.047 533.08V540.328L187.208 548.756C187.208 549.215 187.394 549.612 187.74 549.935C188.062 550.233 188.458 550.381 188.892 550.381H191.925C192.359 550.381 192.755 550.22 193.077 549.897C193.387 549.587 193.547 549.19 193.547 548.768L193.758 540.304V533.055L193.547 526.068C193.547 525.596 193.387 525.174 193.065 524.864L193.077 524.852Z" fill="white"/>
<path d="M187.57 513.954C186.789 514.736 186.381 515.704 186.381 516.809C186.381 517.914 186.777 518.882 187.57 519.639C188.35 520.408 189.303 520.793 190.405 520.793C191.507 520.793 192.473 520.396 193.253 519.601C194.033 518.82 194.442 517.876 194.442 516.797C194.442 515.717 194.045 514.724 193.253 513.942C191.68 512.366 189.117 512.366 187.557 513.942L187.57 513.954Z" fill="white"/>
<path d="M154.384 524.677C154.384 524.193 154.199 523.771 153.852 523.448C153.53 523.151 153.134 522.989 152.7 522.989H149.828C149.357 522.989 148.936 523.151 148.627 523.473C148.317 523.784 148.156 524.206 148.156 524.677L147.946 538.603C147.946 540.34 147.45 541.631 146.435 542.587C145.407 543.53 144.243 544.002 142.881 544.014C141.519 544.014 140.355 543.542 139.328 542.587C138.312 541.643 137.817 540.34 137.817 538.603L137.607 524.677C137.607 524.206 137.446 523.796 137.136 523.473C136.827 523.163 136.406 522.989 135.935 522.989H133.062C132.629 522.989 132.233 523.151 131.911 523.448C131.564 523.759 131.378 524.181 131.378 524.677L131.168 538.627C131.168 540.663 131.601 542.587 132.468 544.349C133.347 546.149 134.684 547.613 136.455 548.718C138.226 549.822 140.38 550.369 142.881 550.369C145.383 550.369 147.537 549.81 149.308 548.718C151.078 547.613 152.416 546.149 153.295 544.349C154.162 542.574 154.595 540.65 154.595 538.627L154.384 524.677Z" fill="white"/>
<path d="M222.995 548.755C222.995 549.239 222.809 549.661 222.462 549.984C222.14 550.281 221.744 550.443 221.311 550.443H218.438C217.968 550.443 217.547 550.281 217.237 549.959C216.927 549.648 216.767 549.226 216.767 548.755L216.556 534.829C216.556 533.092 216.061 531.801 215.045 530.845C214.018 529.902 212.854 529.43 211.492 529.418C210.13 529.418 208.966 529.89 207.938 530.845C206.923 531.789 206.427 533.092 206.427 534.829L206.217 548.755C206.217 549.226 206.056 549.636 205.746 549.959C205.437 550.269 205.016 550.443 204.545 550.443H201.673C201.239 550.443 200.843 550.281 200.521 549.984C200.175 549.673 199.989 549.251 199.989 548.755L199.778 534.805C199.778 532.769 200.212 530.845 201.078 529.083C201.958 527.283 203.295 525.819 205.065 524.714C206.836 523.61 208.991 523.063 211.492 523.063C213.993 523.063 216.147 523.622 217.918 524.714C219.689 525.819 221.026 527.283 221.905 529.083C222.772 530.858 223.205 532.781 223.205 534.805L222.995 548.755Z" fill="white"/>
<path d="M275.179 536.99C274.361 536.282 273.47 535.761 272.516 535.413C271.625 535.091 270.461 534.756 269.025 534.396C267.774 534.123 266.808 533.862 266.152 533.614C265.57 533.39 265.137 533.08 264.79 532.658C264.493 532.286 264.369 531.764 264.431 531.069C264.456 530.734 264.802 530.412 265.087 530.188C265.582 529.816 266.189 529.555 266.895 529.444C267.341 529.381 267.663 529.344 267.886 529.344C269.693 529.344 271.179 530.101 272.455 531.653C272.801 532.062 273.284 532.273 273.854 532.273C274.052 532.273 274.275 532.224 274.559 532.124L276.999 530.697C277.568 530.35 277.878 529.816 277.878 529.17C277.878 528.798 277.779 528.475 277.605 528.252C275.018 524.169 270.993 522.468 265.942 523.201C263.416 523.61 261.397 524.628 259.949 526.204C258.488 527.805 257.745 529.617 257.745 531.578C257.745 533.092 258.215 534.52 259.131 535.835C260.048 537.138 261.397 538.156 263.168 538.876C263.985 539.211 265.261 539.571 267.068 539.968C268.455 540.229 269.458 540.539 270.077 540.862C270.511 541.098 270.709 541.458 270.709 542.016C270.709 542.401 270.61 542.885 269.817 543.307C268.406 544.064 266.672 544.126 264.889 543.332C264.047 542.959 263.354 542.475 262.846 541.904C262.326 541.296 261.558 541.06 260.729 541.47L258.166 542.86C257.831 543.009 257.262 543.419 257.262 544.424C257.262 544.821 257.336 545.119 257.485 545.355C258.574 547.043 260.011 548.321 261.756 549.153C263.49 549.984 265.335 550.406 267.254 550.406C268.988 550.406 270.634 550.083 272.157 549.463C273.718 548.817 274.993 547.887 275.959 546.67C276.949 545.429 277.457 543.99 277.457 542.388C277.457 541.544 277.321 540.713 277.048 539.906C276.652 538.702 276.033 537.709 275.179 536.99V536.99Z" fill="white" fill-opacity="0.6"/>
<path d="M251.986 524.727C251.986 524.243 251.8 523.821 251.454 523.498C251.132 523.2 250.735 523.039 250.302 523.039H247.429C246.959 523.039 246.538 523.2 246.228 523.523C245.919 523.833 245.758 524.255 245.758 524.727L245.547 538.652C245.547 540.39 245.052 541.681 244.037 542.636C243.009 543.58 241.845 544.051 240.483 544.064C239.121 544.064 237.957 543.592 236.929 542.636C235.914 541.693 235.419 540.39 235.419 538.652L235.208 524.727C235.208 524.255 235.047 523.846 234.738 523.523C234.428 523.213 234.007 523.039 233.537 523.039H230.664C230.231 523.039 229.834 523.2 229.512 523.498C229.166 523.809 228.98 524.231 228.98 524.727L228.77 538.677C228.77 540.713 229.203 542.636 230.07 544.399C230.949 546.198 232.286 547.663 234.057 548.768C235.827 549.872 237.982 550.418 240.483 550.418C242.984 550.418 245.139 549.86 246.909 548.768C248.68 547.663 250.017 546.198 250.896 544.399C251.763 542.624 252.196 540.7 252.196 538.677L251.986 524.727V524.727Z" fill="white" fill-opacity="0.6"/>
<path d="M108.06 584.307H109.133V576.959H108.06V584.307ZM102.955 581C103.502 582.281 104.628 583.282 106.04 583.756L106.591 582.924C104.773 582.334 103.477 580.845 103.477 579.211V578.689H106.272V577.809H99.552V578.689H102.395V579.211C102.385 580.932 101.099 582.518 99.2716 583.166L99.8324 583.997C101.283 583.475 102.419 582.383 102.955 581ZM108.06 585.834V589.112H109.133V584.954H100.954V585.834H108.06ZM122.001 576.959H120.928V584.297H122.001V580.961H123.829V580.062H122.001V576.959ZM116.104 581.058C116.626 582.276 117.684 583.243 119.081 583.707L119.594 582.866C117.805 582.276 116.616 580.855 116.616 579.26V578.747H119.342V577.858H112.778V578.747H115.552V579.269C115.543 581.019 114.276 582.586 112.449 583.204L113 584.065C114.46 583.538 115.581 582.45 116.104 581.058ZM118.105 584.626C115.601 584.626 114.073 585.438 114.073 586.84C114.073 588.261 115.601 589.083 118.105 589.083C120.599 589.083 122.108 588.261 122.108 586.84C122.108 585.438 120.599 584.626 118.105 584.626ZM118.105 588.222C116.268 588.222 115.137 587.71 115.146 586.84C115.137 585.989 116.268 585.486 118.105 585.486C119.942 585.486 121.063 585.989 121.063 586.84C121.063 587.71 119.942 588.222 118.105 588.222ZM134.86 576.968V585.854H135.933V576.968H134.86ZM129.368 583.785C131.185 583.794 132.549 582.566 132.549 580.797C132.549 579.047 131.185 577.819 129.368 577.819C127.55 577.819 126.177 579.047 126.177 580.797C126.177 582.566 127.55 583.794 129.368 583.785ZM127.231 580.797C127.221 579.608 128.14 578.757 129.368 578.757C130.576 578.757 131.505 579.608 131.505 580.797C131.505 582.006 130.576 582.847 129.368 582.847C128.14 582.847 127.221 582.006 127.231 580.797ZM129.155 584.945H128.082V588.841H136.31V587.952H129.155V584.945ZM144.827 581.396C147.534 581.387 149.12 580.642 149.12 579.269C149.12 577.916 147.534 577.171 144.827 577.171C142.12 577.171 140.524 577.916 140.524 579.269C140.524 580.642 142.12 581.387 144.827 581.396ZM144.827 577.983C146.848 577.983 148.027 578.467 148.027 579.269C148.027 580.11 146.848 580.575 144.827 580.575C142.816 580.575 141.636 580.11 141.646 579.269C141.636 578.467 142.816 577.983 144.827 577.983ZM139.296 583.088H150.377V582.218H139.296V583.088ZM148.946 586.859V584.142H140.64V584.964H147.892V586.066H140.669V588.977H149.313V588.126H141.723V586.859H148.946ZM166.482 589.122H167.536V576.968H166.482V589.122ZM161.512 582.518C163.33 582.528 164.635 581.512 164.635 580.033C164.635 578.544 163.33 577.539 161.512 577.548C159.695 577.539 158.399 578.544 158.399 580.033C158.399 581.512 159.695 582.528 161.512 582.518ZM161.512 578.428C162.74 578.419 163.611 579.086 163.611 580.033C163.611 580.981 162.74 581.638 161.512 581.628C160.304 581.638 159.434 580.981 159.443 580.033C159.434 579.086 160.304 578.419 161.512 578.428ZM165.583 583.117C162.885 583.514 159.762 583.562 157.481 583.562L157.626 584.471C158.641 584.466 159.811 584.456 161.048 584.403V588.735H162.122V584.345C163.291 584.268 164.5 584.142 165.66 583.93L165.583 583.117ZM175.096 578.457V576.968H174.032V578.457H170.938V579.337H178.18V578.457H175.096ZM180.413 576.968H179.34V586.076H180.413V581.88H182.241V580.971H180.413V576.968ZM177.484 582.276C177.474 580.894 176.295 580.004 174.564 580.004C172.804 580.004 171.625 580.894 171.634 582.276C171.625 583.64 172.804 584.519 174.564 584.519C176.295 584.519 177.474 583.64 177.484 582.276ZM172.659 582.276C172.65 581.406 173.413 580.845 174.564 580.845C175.695 580.845 176.459 581.406 176.469 582.276C176.459 583.127 175.695 583.678 174.564 583.669C173.413 583.678 172.65 583.127 172.659 582.276ZM172.804 585.341V588.841H180.974V587.952H173.868V585.341H172.804ZM198.124 582.238V584.162H199.197V576.959H198.124V578.941H195.272V577.887H189.693V583.282H195.272V582.238H198.124ZM190.757 582.402V578.757H194.218V582.402H190.757ZM198.124 581.348H195.272V579.82H198.124V581.348ZM195.165 584.51C192.632 584.51 191.085 585.351 191.095 586.811C191.085 588.261 192.632 589.083 195.165 589.083C197.689 589.083 199.236 588.261 199.236 586.811C199.236 585.351 197.689 584.51 195.165 584.51ZM195.165 588.232C193.299 588.232 192.149 587.691 192.158 586.811C192.149 585.892 193.299 585.36 195.165 585.351C197.022 585.36 198.172 585.892 198.172 586.811C198.172 587.691 197.022 588.232 195.165 588.232ZM206.709 578.254V576.862H205.645V578.254H202.551V579.134H209.793V578.254H206.709ZM212.026 580.188V576.959H210.953V584.278H212.026V581.116H213.854V580.188H212.026ZM209.097 581.909C209.087 580.604 207.917 579.743 206.177 579.743C204.408 579.743 203.238 580.604 203.247 581.909C203.238 583.224 204.408 584.075 206.177 584.075C207.917 584.075 209.087 583.224 209.097 581.909ZM204.272 581.909C204.263 581.106 205.026 580.575 206.177 580.575C207.308 580.575 208.072 581.106 208.082 581.909C208.072 582.731 207.308 583.243 206.177 583.253C205.026 583.243 204.263 582.731 204.272 581.909ZM212.026 588.948V584.974H204.35V588.948H212.026ZM210.963 585.834V588.068H205.403V585.834H210.963ZM217.208 584.548C217.691 584.548 218.088 584.152 218.088 583.669C218.088 583.185 217.691 582.789 217.208 582.789C216.724 582.789 216.318 583.185 216.328 583.669C216.318 584.152 216.724 584.548 217.208 584.548ZM229.739 576.959V583.195H230.812V576.959H229.739ZM227.37 580.101C227.361 578.515 226.036 577.413 224.218 577.403C222.381 577.413 221.057 578.515 221.057 580.101C221.057 581.686 222.381 582.779 224.218 582.779C226.036 582.779 227.361 581.686 227.37 580.101ZM222.111 580.101C222.101 579.047 223 578.302 224.218 578.312C225.427 578.302 226.326 579.047 226.326 580.101C226.326 581.164 225.427 581.899 224.218 581.899C223 581.899 222.101 581.164 222.111 580.101ZM223.986 586.714H230.812V583.785H222.904V584.655H229.749V585.902H222.942V588.948H231.247V588.077H223.986V586.714ZM240.722 581.019H243.177V584.2H244.251V576.959H243.177V580.13H240.722V581.019ZM237.884 580.981C238.411 582.233 239.47 583.253 240.838 583.746L241.398 582.885C239.619 582.276 238.401 580.768 238.401 579.182V578.738H241.118V577.848H234.573V578.738H237.318V579.192C237.318 580.932 236.032 582.576 234.224 583.233L234.785 584.084C236.236 583.538 237.362 582.402 237.884 580.981ZM240.219 584.577C237.686 584.577 236.139 585.409 236.148 586.84C236.139 588.271 237.686 589.093 240.219 589.102C242.742 589.093 244.289 588.271 244.289 586.84C244.289 585.409 242.742 584.577 240.219 584.577ZM240.219 588.242C238.353 588.251 237.202 587.72 237.212 586.84C237.202 585.95 238.353 585.419 240.219 585.419C242.075 585.419 243.226 585.95 243.226 586.84C243.226 587.72 242.075 588.251 240.219 588.242ZM261.913 576.959H260.83V586.105H261.913V581.831H263.692V580.913H261.913V576.959ZM258.809 582.141C259.119 580.546 259.119 579.337 259.128 578.544V577.896H253.066V578.796H258.07C258.06 579.564 258.031 580.594 257.736 582.054L258.809 582.141ZM259.998 582.876C258.737 583.05 257.344 583.146 255.996 583.204V580.594H254.932V583.238C253.994 583.262 253.105 583.267 252.322 583.272L252.428 584.162C254.594 584.152 257.523 584.104 260.066 583.669L259.998 582.876ZM254.197 585.273V588.841H262.309V587.952H255.271V585.273H254.197ZM274.761 589.131H275.825V576.959H274.761V589.131ZM267.597 582.412H272.132V578.09H266.475V578.979H271.049V581.532H266.495V586.182H267.51C269.608 586.182 271.455 586.095 273.688 585.738L273.582 584.838C271.406 585.191 269.613 585.278 267.597 585.283V582.412Z" fill="#EEECFF"/>
</svg>
