<svg
  width="72"
  height="56"
  viewBox="0 0 72 56"
  fill="none"
  xmlns="http://www.w3.org/2000/svg"
>
  <rect width="72" height="56" fill="white" />
  <path
    d="M42.625 15.5117H27.7812V14.908L40.8438 13.8455V14.908H42.625V13.0969C42.625 11.7689 41.5669 10.8368 40.2749 11.0239L28.3512 12.7553C27.0581 12.9436 26 14.1836 26 15.5117V27.5853C26 28.2257 26.2502 28.8399 26.6956 29.2927C27.141 29.7456 27.7451 30 28.375 30H42.625C43.2549 30 43.859 29.7456 44.3044 29.2927C44.7498 28.8399 45 28.2257 45 27.5853V17.9264C45 17.286 44.7498 16.6718 44.3044 16.2189C43.859 15.7661 43.2549 15.5117 42.625 15.5117ZM40.8438 23.9704C40.6098 23.9704 40.3781 23.9234 40.1619 23.8323C39.9458 23.7412 39.7494 23.6077 39.584 23.4394C39.4186 23.2711 39.2874 23.0714 39.1979 22.8515C39.1084 22.6317 39.0624 22.3961 39.0625 22.1582C39.0626 21.9203 39.1087 21.6847 39.1984 21.465C39.288 21.2452 39.4193 21.0455 39.5848 20.8773C39.7503 20.7092 39.9468 20.5758 40.163 20.4848C40.3792 20.3939 40.6109 20.3471 40.8449 20.3471C41.3175 20.3473 41.7707 20.5383 42.1047 20.8782C42.4388 21.2181 42.6263 21.6789 42.6262 22.1594C42.626 22.6399 42.4382 23.1006 42.1039 23.4402C41.7696 23.7799 41.3163 23.9706 40.8438 23.9704Z"
    fill="#BCC2CC"
  />
  <path
    d="M28.4315 45.0608V46.7099H29.3514V40.5359H28.4315V42.2348H25.9867V41.3315H21.205V45.9558H25.9867V45.0608H28.4315ZM22.1166 45.2017V42.0773H25.0834V45.2017H22.1166ZM28.4315 44.2983H25.9867V42.989H28.4315V44.2983ZM25.8956 47.0083C23.7243 47.0083 22.3983 47.7293 22.4066 48.9807C22.3983 50.2238 23.7243 50.9282 25.8956 50.9282C28.0586 50.9282 29.3845 50.2238 29.3845 48.9807C29.3845 47.7293 28.0586 47.0083 25.8956 47.0083ZM25.8956 50.1989C24.2961 50.1989 23.3099 49.7348 23.3182 48.9807C23.3099 48.1934 24.2961 47.7376 25.8956 47.7293C27.4867 47.7376 28.4729 48.1934 28.4729 48.9807C28.4729 49.7348 27.4867 50.1989 25.8956 50.1989ZM34.8255 41.6464V40.453H33.9139V41.6464H31.262V42.4006H37.4691V41.6464H34.8255ZM39.3835 43.3039V40.5359H38.4636V46.8094H39.3835V44.0994H40.9498V43.3039H39.3835ZM36.8725 44.779C36.8642 43.6602 35.8614 42.9227 34.3697 42.9227C32.8531 42.9227 31.8504 43.6602 31.8587 44.779C31.8504 45.9061 32.8531 46.6354 34.3697 46.6354C35.8614 46.6354 36.8642 45.9061 36.8725 44.779ZM32.7371 44.779C32.7288 44.0912 33.3835 43.6354 34.3697 43.6354C35.3393 43.6354 35.994 44.0912 36.0023 44.779C35.994 45.4834 35.3393 45.9227 34.3697 45.9309C33.3835 45.9227 32.7288 45.4834 32.7371 44.779ZM39.3835 50.8122V47.4061H32.8034V50.8122H39.3835ZM38.4719 48.1436V50.058H33.7067V48.1436H38.4719ZM44.8742 44.0539C45.3507 45.0566 46.3245 45.8149 47.5593 46.163L47.982 45.442C46.4322 45.0193 45.3134 43.9254 45.3134 42.6409V42.4503H47.6588V41.7127H45.33V40.4862H44.4018V41.7127H42.0483V42.4503H44.4018V42.6409C44.4018 44 43.3079 45.1768 41.7582 45.6409L42.2057 46.3619C43.453 45.9807 44.4226 45.1478 44.8742 44.0539ZM49.4737 43.3287H47.3604V44.0912H49.4737V46.2956H50.3853V40.5359H49.4737V43.3287ZM44.6007 48.0359V46.7762H43.6809V50.8122H50.3853V46.7762H49.4737V48.0359H44.6007ZM44.6007 50.058V48.7652H49.4737V50.058H44.6007Z"
    fill="#8892A0"
  />
</svg>
