<svg width="18" height="16" viewBox="0 0 18 16" fill="none" xmlns="http://www.w3.org/2000/svg">
<path d="M18 4.99998C18 7.54997 16.525 10.1666 13.6167 12.7833C12.296 13.9705 10.8581 15.0204 9.325 15.9166C9.22541 15.9713 9.11363 16 9 16C8.88637 16 8.77459 15.9713 8.675 15.9166C8.31667 15.7166 0 10.9916 0 4.99998C0 3.95057 0.330187 2.92777 0.943789 2.07644C1.55739 1.22512 2.4233 0.588435 3.41886 0.256583C4.41442 -0.0752695 5.48916 -0.0854682 6.49084 0.227431C7.49252 0.540331 8.37035 1.16047 9 1.99999C9.62965 1.16047 10.5075 0.540331 11.5092 0.227431C12.5108 -0.0854682 13.5856 -0.0752695 14.5811 0.256583C15.5767 0.588435 16.4426 1.22512 17.0562 2.07644C17.6698 2.92777 18 3.95057 18 4.99998Z" fill="#FF7575"/>
</svg>
