<svg width="375" height="64" viewBox="0 0 375 64" fill="none" xmlns="http://www.w3.org/2000/svg">
<rect width="375" height="64" fill="#F5F6FA"/>
<path d="M123.138 22.0608V23.7099H124.058V17.5359H123.138V19.2348H120.693V18.3315H115.912V22.9558H120.693V22.0608H123.138ZM116.823 22.2017V19.0773H119.79V22.2017H116.823ZM123.138 21.2983H120.693V19.989H123.138V21.2983ZM120.602 24.0083C118.431 24.0083 117.105 24.7293 117.113 25.9807C117.105 27.2238 118.431 27.9282 120.602 27.9282C122.765 27.9282 124.091 27.2238 124.091 25.9807C124.091 24.7293 122.765 24.0083 120.602 24.0083ZM120.602 27.1989C119.003 27.1989 118.017 26.7348 118.025 25.9807C118.017 25.1934 119.003 24.7376 120.602 24.7293C122.193 24.7376 123.18 25.1934 123.18 25.9807C123.18 26.7348 122.193 27.1989 120.602 27.1989ZM129.532 18.6464V17.453H128.621V18.6464H125.969V19.4006H132.176V18.6464H129.532ZM134.09 20.3039V17.5359H133.17V23.8094H134.09V21.0994H135.656V20.3039H134.09ZM131.579 21.779C131.571 20.6602 130.568 19.9227 129.076 19.9227C127.56 19.9227 126.557 20.6602 126.565 21.779C126.557 22.9061 127.56 23.6354 129.076 23.6354C130.568 23.6354 131.571 22.9061 131.579 21.779ZM127.444 21.779C127.435 21.0912 128.09 20.6354 129.076 20.6354C130.046 20.6354 130.701 21.0912 130.709 21.779C130.701 22.4834 130.046 22.9227 129.076 22.9309C128.09 22.9227 127.435 22.4834 127.444 21.779ZM134.09 27.8122V24.4061H127.51V27.8122H134.09ZM133.179 25.1436V27.058H128.413V25.1436H133.179ZM143.082 18.7044V17.4448H142.171V18.7044H139.635V19.4503H145.535V18.7044H143.082ZM145.527 20.8011H147.342V22.0691H145.519V22.8315H147.342V24.2735H148.262V17.5359H147.342V20.0387H145.527V20.8011ZM144.997 21.9199C144.988 20.7514 144.011 19.989 142.618 19.989C141.209 19.989 140.248 20.7514 140.256 21.9199C140.248 23.0801 141.209 23.8425 142.618 23.8425C144.011 23.8425 144.988 23.0801 144.997 21.9199ZM141.118 21.9199C141.11 21.1823 141.707 20.6934 142.618 20.6851C143.513 20.6934 144.127 21.1823 144.135 21.9199C144.127 22.6492 143.513 23.1381 142.618 23.1381C141.707 23.1381 141.11 22.6492 141.118 21.9199ZM144.831 24.3729C142.643 24.3729 141.325 25.0193 141.325 26.1547C141.325 27.2735 142.643 27.9282 144.831 27.9282C147.002 27.9282 148.32 27.2735 148.32 26.1547C148.32 25.0193 147.002 24.3729 144.831 24.3729ZM144.831 27.2072C143.248 27.2155 142.278 26.8177 142.278 26.1547C142.278 25.4751 143.248 25.0939 144.831 25.0939C146.389 25.0939 147.35 25.4751 147.35 26.1547C147.35 26.8177 146.389 27.2155 144.831 27.2072ZM157.83 23.8094H158.75V17.5359H157.83V23.8094ZM153.376 20.6768C153.844 21.837 154.797 22.7362 156.007 23.1796L156.479 22.4503C154.929 21.9116 153.827 20.5608 153.835 19.0442V18.0414H152.899V19.0442C152.899 20.6188 151.813 22.0608 150.247 22.6409L150.728 23.3619C151.958 22.8895 152.92 21.9157 153.376 20.6768ZM157.83 25.0856V27.953H158.75V24.3315H151.739V25.0856H157.83ZM171.496 17.5359V27.9696H172.416V17.5359H171.496ZM166.88 18.3398C165.322 18.3481 164.22 19.7569 164.22 21.9696C164.22 24.1906 165.322 25.5994 166.88 25.5994C168.422 25.5994 169.54 24.1906 169.54 21.9696C169.54 19.7569 168.422 18.3481 166.88 18.3398ZM166.88 19.1602C167.924 19.1685 168.645 20.279 168.645 21.9696C168.645 23.6685 167.924 24.779 166.88 24.779C165.836 24.779 165.107 23.6685 165.107 21.9696C165.107 20.279 165.836 19.1685 166.88 19.1602ZM182.987 23.2624V17.5359H182.067V19.5994H180.078V20.3536H182.067V23.2624H182.987ZM180.277 21.5138C178.752 21.7956 177.468 21.8412 175.711 21.8453V20.6022H179.415V18.0249H174.758V18.7376H178.503V19.9227H174.782V22.5829H175.57C177.426 22.5829 178.76 22.5249 180.36 22.2597L180.277 21.5138ZM180.037 22.8564H179.117V23.8591H175.91V24.5718H183.219V23.8591H180.037V22.8564ZM179.564 25.0028C177.724 25.0028 176.639 25.5166 176.639 26.4613C176.639 27.4227 177.724 27.9282 179.564 27.9282C181.404 27.9282 182.498 27.4227 182.498 26.4613C182.498 25.5166 181.404 25.0028 179.564 25.0028ZM179.564 27.2652C178.271 27.2652 177.534 26.9834 177.534 26.4613C177.534 25.9724 178.271 25.6657 179.564 25.6657C180.857 25.6657 181.603 25.9724 181.603 26.4613C181.603 26.9834 180.857 27.2652 179.564 27.2652ZM192.911 27.953H193.79V17.5359H192.911V27.953ZM188.851 21.8122C189.207 20.884 189.369 19.8895 189.373 18.8619H185.328V19.6326H188.453C188.279 21.8122 187.143 23.6934 184.881 25.0359L185.42 25.6989C186.874 24.8412 187.881 23.768 188.511 22.558H190.723V27.4227H191.602V17.8177H190.723V21.8122H188.851ZM206.271 21.3315H203.984V22.0939H206.271V27.9696H207.191V17.5359H206.271V21.3315ZM202.169 19.3757H204.555V18.605H198.862V19.3757H201.241V20.6271C201.232 22.4751 199.973 24.4392 198.464 25.1685L199.028 25.8895C200.217 25.2638 201.245 23.9213 201.717 22.3757C202.185 23.826 203.188 25.0898 204.373 25.674L204.928 24.9365C203.412 24.2486 202.169 22.3591 202.169 20.6271V19.3757ZM217.712 23.2624V17.5359H216.792V19.5994H214.803V20.3536H216.792V23.2624H217.712ZM215.002 21.5138C213.477 21.7956 212.193 21.8412 210.436 21.8453V20.6022H214.14V18.0249H209.483V18.7376H213.228V19.9227H209.507V22.5829H210.295C212.151 22.5829 213.485 22.5249 215.085 22.2597L215.002 21.5138ZM214.762 22.8564H213.842V23.8591H210.635V24.5718H217.944V23.8591H214.762V22.8564ZM214.289 25.0028C212.449 25.0028 211.364 25.5166 211.364 26.4613C211.364 27.4227 212.449 27.9282 214.289 27.9282C216.129 27.9282 217.223 27.4227 217.223 26.4613C217.223 25.5166 216.129 25.0028 214.289 25.0028ZM214.289 27.2652C212.996 27.2652 212.259 26.9834 212.259 26.4613C212.259 25.9724 212.996 25.6657 214.289 25.6657C215.582 25.6657 216.328 25.9724 216.328 26.4613C216.328 26.9834 215.582 27.2652 214.289 27.2652ZM227.636 27.953H228.515V17.5359H227.636V27.953ZM223.576 21.8122C223.932 20.884 224.094 19.8895 224.098 18.8619H220.053V19.6326H223.178C223.004 21.8122 221.868 23.6934 219.606 25.0359L220.145 25.6989C221.599 24.8412 222.606 23.768 223.236 22.558H225.448V27.4227H226.327V17.8177H225.448V21.8122H223.576ZM240.946 17.5442V25.3343H241.866V17.5442H240.946ZM240.076 22.9475C239.177 23.047 238.207 23.1133 237.234 23.1588V21.7044H239.338V20.9503H235.203V18.9779H239.256V18.2155H234.275V21.7044H236.314V23.1961C235.265 23.2293 234.238 23.2417 233.322 23.2459L233.463 24C235.427 24 237.905 23.9337 240.142 23.6271L240.076 22.9475ZM236.024 24.7956H235.104V27.721H242.214V26.9586H236.024V24.7956ZM250.419 18.7044V17.4448H249.507V18.7044H246.972V19.4503H252.872V18.7044H250.419ZM252.864 20.8011H254.679V22.0691H252.856V22.8315H254.679V24.2735H255.599V17.5359H254.679V20.0387H252.864V20.8011ZM252.333 21.9199C252.325 20.7514 251.347 19.989 249.955 19.989C248.546 19.989 247.585 20.7514 247.593 21.9199C247.585 23.0801 248.546 23.8425 249.955 23.8425C251.347 23.8425 252.325 23.0801 252.333 21.9199ZM248.455 21.9199C248.447 21.1823 249.043 20.6934 249.955 20.6851C250.85 20.6934 251.463 21.1823 251.472 21.9199C251.463 22.6492 250.85 23.1381 249.955 23.1381C249.043 23.1381 248.447 22.6492 248.455 21.9199ZM252.168 24.3729C249.98 24.3729 248.662 25.0193 248.662 26.1547C248.662 27.2735 249.98 27.9282 252.168 27.9282C254.339 27.9282 255.657 27.2735 255.657 26.1547C255.657 25.0193 254.339 24.3729 252.168 24.3729ZM252.168 27.2072C250.585 27.2155 249.615 26.8177 249.615 26.1547C249.615 25.4751 250.585 25.0939 252.168 25.0939C253.726 25.0939 254.687 25.4751 254.687 26.1547C254.687 26.8177 253.726 27.2155 252.168 27.2072ZM265.523 21.721H264.089V17.7597H263.203V27.4227H264.089V22.4834H265.523V27.953H266.41V17.5359H265.523V21.721ZM258.785 22.2348H261.877V21.4889H258.785V19.4917H262.034V18.7376H257.907V25.3757H258.578C260.285 25.3757 261.288 25.326 262.515 25.0939L262.424 24.3232C261.288 24.5387 260.327 24.5843 258.785 24.5884V22.2348ZM276.152 17.5276H275.232V25.1685H276.152V21.4807H277.718V20.7017H276.152V17.5276ZM268.453 18.4807V23.279H273.268V18.4807H268.453ZM269.348 22.5331V19.2348H272.373V22.5331H269.348ZM269.63 24.4475V27.721H276.633V26.9586H270.541V24.4475H269.63ZM123.105 33.5442V41.1602H124.025V33.5442H123.105ZM118.398 39.3867C119.956 39.395 121.124 38.3425 121.124 36.826C121.124 35.326 119.956 34.2735 118.398 34.2735C116.84 34.2735 115.663 35.326 115.663 36.826C115.663 38.3425 116.84 39.395 118.398 39.3867ZM116.566 36.826C116.558 35.8066 117.345 35.0773 118.398 35.0773C119.434 35.0773 120.229 35.8066 120.229 36.826C120.229 37.8619 119.434 38.5829 118.398 38.5829C117.345 38.5829 116.558 37.8619 116.566 36.826ZM118.215 40.3812H117.296V43.721H124.348V42.9586H118.215V40.3812ZM133.626 39.8094H134.546V33.5359H133.626V39.8094ZM129.172 36.6768C129.64 37.837 130.593 38.7362 131.803 39.1796L132.275 38.4503C130.726 37.9116 129.623 36.5608 129.632 35.0442V34.0414H128.695V35.0442C128.695 36.6188 127.609 38.0608 126.043 38.6409L126.524 39.3619C127.755 38.8895 128.716 37.9157 129.172 36.6768ZM133.626 41.0856V43.953H134.546V40.3315H127.535V41.0856H133.626ZM147.69 37.7707V33.5359H146.77V43.9448H147.69V38.5497H149.381V37.7707H147.69ZM140.182 34.6547V35.4254H144.06C143.853 37.8992 142.386 39.9047 139.693 41.2431L140.207 41.9641C143.604 40.2901 144.988 37.605 144.997 34.6547H140.182ZM152.36 36.453V33.7431H151.449V37.2072H158.559V36.453H152.36ZM150.148 39.1878H159.653V38.4254H150.148V39.1878ZM154.888 40.1243C152.642 40.1243 151.291 40.8039 151.291 42.0138C151.291 43.2238 152.642 43.9033 154.888 43.9033C157.126 43.9033 158.468 43.2238 158.476 42.0138C158.468 40.8039 157.126 40.1243 154.888 40.1243ZM154.888 43.1823C153.222 43.1823 152.219 42.7431 152.228 42.0138C152.219 41.2762 153.222 40.8619 154.888 40.8536C156.545 40.8619 157.548 41.2762 157.556 42.0138C157.548 42.7431 156.545 43.1823 154.888 43.1823ZM164.257 34.6133V33.4365H163.346V34.6133H160.694V35.3674H166.901V34.6133H164.257ZM168.815 36.2044V33.5359H167.895V39.5856H168.815V36.9834H170.381V36.2044H168.815ZM163.801 39.5028C165.293 39.511 166.296 38.7901 166.304 37.6796C166.296 36.5691 165.293 35.8564 163.801 35.8564C162.285 35.8564 161.282 36.5691 161.29 37.6796C161.282 38.7901 162.285 39.511 163.801 39.5028ZM162.169 37.6796C162.16 37.0083 162.815 36.5525 163.801 36.5608C164.771 36.5525 165.426 37.0083 165.434 37.6796C165.426 38.3591 164.771 38.8066 163.801 38.8066C162.815 38.8066 162.16 38.3591 162.169 37.6796ZM163.138 41.1602V40.0414H162.227V43.8122H168.815V40.0414H167.895V41.1602H163.138ZM163.138 43.0663V41.8895H167.895V43.0663H163.138ZM178.864 43.953H179.775V33.5359H178.864V43.953ZM172.773 34.5635H171.869V41.268H172.715C174.38 41.268 176.03 41.1354 177.878 40.7541L177.753 39.9669C176.001 40.3356 174.364 40.4599 172.773 40.4641V34.5635ZM189.774 37.6547V33.5359H188.855V43.9696H189.774V38.4254H191.515V37.6547H189.774ZM183.087 35.3094H187.031V34.5552H182.167V41.3591H182.987C184.968 41.3591 186.335 41.3011 187.968 41.011L187.852 40.2155C186.306 40.5014 184.972 40.576 183.087 40.5801V35.3094ZM193.334 43.0663C193.749 43.0663 194.088 42.7265 194.088 42.3122C194.088 41.8978 193.749 41.558 193.334 41.558C192.92 41.558 192.572 41.8978 192.58 42.3122C192.572 42.7265 192.92 43.0663 193.334 43.0663Z" fill="#52596B"/>
<rect x="24" y="12" width="71" height="39" rx="2" fill="white"/>
<rect x="28" y="33" width="16" height="4" rx="2" fill="#BCC2CC"/>
<rect x="28" y="41" width="28" height="2" rx="1" fill="#E2E6EF"/>
<rect x="28" y="45" width="28" height="2" rx="1" fill="#E2E6EF"/>
</svg>
