<svg width="335" height="184" viewBox="0 0 335 184" fill="none" xmlns="http://www.w3.org/2000/svg">
<rect x="0.5" y="0.5" width="334" height="183" rx="7.5" fill="white"/>
<circle cx="168" cy="92" r="10" fill="white"/>
<path fill-rule="evenodd" clip-rule="evenodd" d="M168 77.3335C159.9 77.3335 153.333 83.9002 153.333 92.0002C153.333 100.1 159.9 106.667 168 106.667C176.1 106.667 182.666 100.1 182.666 92.0002C182.666 83.9002 176.1 77.3335 168 77.3335ZM169.333 97.3335C169.333 97.6871 169.193 98.0263 168.942 98.2763C168.692 98.5264 168.353 98.6668 168 98.6668C167.646 98.6668 167.307 98.5264 167.057 98.2763C166.807 98.0263 166.666 97.6871 166.666 97.3335V93.3335H162.666C162.313 93.3335 161.974 93.193 161.724 92.943C161.473 92.6929 161.333 92.3538 161.333 92.0002C161.333 91.6465 161.473 91.3074 161.724 91.0574C161.974 90.8073 162.313 90.6668 162.666 90.6668H166.666V86.6668C166.666 86.3132 166.807 85.9741 167.057 85.724C167.307 85.474 167.646 85.3335 168 85.3335C168.353 85.3335 168.692 85.474 168.942 85.724C169.193 85.9741 169.333 86.3132 169.333 86.6668V90.6668H173.333C173.687 90.6668 174.026 90.8073 174.276 91.0574C174.526 91.3074 174.666 91.6465 174.666 92.0002C174.666 92.3538 174.526 92.6929 174.276 92.943C174.026 93.193 173.687 93.3335 173.333 93.3335H169.333V97.3335Z" fill="#8892A0"/>
<rect x="0.5" y="0.5" width="334" height="183" rx="7.5" stroke="#E2E6EF"/>
</svg>
