<svg width="80" height="80" viewBox="0 0 80 80" fill="none" xmlns="http://www.w3.org/2000/svg">
<path d="M65.637 14.7953H27.282C24.7333 14.7953 24.4618 11.4868 26.6553 10.9633H65.637C66.2011 10.9633 66.7651 11.0052 67.3083 11.068C66.5353 5.28863 61.5216 1.28913 56.1109 2.10579C55.9647 2.12673 55.8185 2.14767 55.6722 2.18954L17.5888 9.12061C17.1083 9.20437 16.6487 9.28813 16.1682 9.37189H16.1264C15.7922 9.43471 15.4788 9.51847 15.1655 9.62317C9.69213 11.2565 8.08356 16.638 8.08356 19.9255V23.8203C8.04178 24.2182 8 24.616 8 25.0348V55.7535C8 61.4072 12.3035 65.993 17.6097 65.993H65.637C70.9432 65.993 75.2467 61.4072 75.2467 55.7535V25.0348C75.2467 19.3811 70.9432 14.7953 65.637 14.7953ZM58.5133 45.5139C55.8602 45.5139 53.7085 43.2315 53.7085 40.4046C53.7085 37.5778 55.8602 35.2953 58.5133 35.2953C61.1664 35.2953 63.3182 37.5778 63.3182 40.4046C63.3182 43.2315 61.1664 45.5139 58.5133 45.5139Z" fill="#5546FF"/>
<path d="M17.5878 76.0986C17.5878 78.4229 20.22 79.5746 21.745 77.9413L34.2167 64.6445L17.5669 64.7492V76.0986H17.5878Z" fill="#5546FF"/>
</svg>