<svg
            width="23"
            height="14"
            viewBox="0 0 23 14"
            fill="none"
            xmlns="http://www.w3.org/2000/svg"
            
          >
            <path
              d="M10.3151 9.99862V0.910221H9.01957V3.18715H7.10037V4.24586H9.01957V5.54144H7.10037V6.62431H9.01957V9.99862H10.3151ZM7.29374 6.88536C6.81515 6.93854 6.30755 6.98204 5.79512 7.02072V2.91644H6.96017V1.86257H0.453268V2.91644H1.60382V7.16575C1.07689 7.17058 0.578958 7.17541 0.119704 7.17541L0.2744 8.26796C2.24194 8.25829 5.0023 8.21478 7.35175 7.84254L7.29374 6.88536ZM4.54788 2.91644V7.0884C3.98227 7.1174 3.41667 7.13191 2.86556 7.14641V2.91644H4.54788ZM3.64388 9.26865H2.33379V12.9088H10.6342V11.8453H3.64388V9.26865ZM21.216 7.54282H22.5164V0.910221H21.216V7.54282ZM16.2416 4.79696C16.7975 5.99586 17.8804 6.92887 19.3113 7.36878L19.9639 6.35359C18.0786 5.80249 16.8893 4.39088 16.8893 2.86809V2.73273H19.5869V1.6837H12.8237V2.73273H15.5793V2.86809C15.5696 4.4779 14.3804 5.97652 12.466 6.56146L13.1283 7.58149C14.5979 7.09807 15.6953 6.08287 16.2416 4.79696ZM15.7678 9.48619V8.11809H14.4964V13.0055H22.5164V8.11809H21.2257V9.48619H15.7678ZM15.7678 11.9517V10.5062H21.2257V11.9517H15.7678Z"
              fill="#277DFF"
            />
          </svg>