<svg width="335" height="52" viewBox="0 0 335 52" fill="none" xmlns="http://www.w3.org/2000/svg">
<rect width="335" height="52" rx="8" fill="#FEE500"/>
<path d="M128.549 24.9171V19.326H127.063V33.3094H128.549V26.1381H130.72V24.9171H128.549ZM118.521 20.7459V21.9558H123.433C123.378 22.7514 123.256 23.5083 123.041 24.232L117.803 24.5746L118.013 25.8564L122.593 25.4254C121.759 27.1989 120.251 28.7072 117.715 29.9503L118.532 31.0663C123.637 28.547 124.908 24.884 124.913 20.7459H118.521ZM142.527 24.9171V19.326H141.041V33.3094H142.527V26.1381H144.698V24.9171H142.527ZM132.499 20.7459V21.9558H137.411C137.356 22.7514 137.234 23.5083 137.019 24.232L131.781 24.5746L131.991 25.8564L136.571 25.4254C135.737 27.1989 134.229 28.7072 131.693 29.9503L132.51 31.0663C137.615 28.547 138.886 24.884 138.892 20.7459H132.499ZM152.704 27.6022C155.312 27.3812 157.146 25.989 157.146 23.895C157.146 21.6575 154.964 20.1823 151.969 20.1768C148.991 20.1823 146.809 21.6575 146.809 23.895C146.809 25.989 148.638 27.3812 151.234 27.5967V30.3536H145.599V31.5801H158.411V30.3536H152.704V27.6022ZM148.251 23.895C148.251 22.3757 149.814 21.3757 151.969 21.3812C154.14 21.3757 155.698 22.3757 155.698 23.895C155.698 25.4641 154.14 26.4365 151.969 26.4475C149.814 26.4365 148.251 25.4641 148.251 23.895ZM166.682 27.9503H171.146V26.7348H162.61V24.6906H170.82V20.3204H161.108V21.5304H169.356V23.4972H161.135V27.9503H165.213V30.4144H159.577V31.6464H172.389V30.4144H166.682V27.9503ZM184.716 27.9503H189.181V26.7348H180.645V24.6906H188.855V20.3204H179.142V21.5304H187.391V23.4972H179.17V27.9503H183.247V30.4144H177.612V31.6464H190.424V30.4144H184.716V27.9503ZM201.214 22.2431C201.208 24.011 201.208 26.0718 200.656 28.884L202.164 29.0166C202.678 26.0221 202.678 24.0608 202.678 22.2431V20.7514H192.954V21.9613H201.214V22.2431ZM191.59 31.3425H204.352V30.116H191.59V31.3425ZM215.695 19.337V29.5138H217.181V19.337H215.695ZM209.579 27.232C211.689 27.2376 213.297 25.8066 213.297 23.7514C213.297 21.7238 211.689 20.2873 209.579 20.2873C207.468 20.2873 205.85 21.7238 205.85 23.7514C205.85 25.8066 207.468 27.2376 209.579 27.232ZM207.303 23.7514C207.292 22.4586 208.275 21.5801 209.579 21.5801C210.861 21.5801 211.844 22.4586 211.844 23.7514C211.844 25.0663 210.861 25.9392 209.579 25.9392C208.275 25.9392 207.292 25.0663 207.303 23.7514ZM209.513 28.4807H208.021V33.0387H217.59V31.8232H209.513V28.4807Z" fill="#191919"/>
<path fill-rule="evenodd" clip-rule="evenodd" d="M39 25.185C39 20.664 34.299 17 28.5 17C22.701 17 18 20.665 18 25.185C18 28.061 19.905 30.591 22.785 32.051L21.893 35.729C21.687 36.378 21.864 36.407 22.365 36.142L26.773 33.259C27.3457 33.3326 27.9226 33.3693 28.5 33.369C34.299 33.369 39 29.705 39 25.185Z" fill="black"/>
</svg>
