<svg width="8" height="5" viewBox="0 0 8 5" fill="none" xmlns="http://www.w3.org/2000/svg">
<path d="M4 4.8C3.90433 4.8 3.81178 4.78168 3.72233 4.74504C3.63241 4.7084 3.55755 4.65954 3.49776 4.59847L0.197309 1.22748C0.0657695 1.09313 0 0.922137 0 0.714503C0 0.50687 0.0657695 0.335878 0.197309 0.201526C0.328849 0.0671753 0.496263 0 0.699551 0C0.90284 0 1.07025 0.0671753 1.20179 0.201526L4 3.05954L6.79821 0.201526C6.92975 0.0671753 7.09716 0 7.30045 0C7.50374 0 7.67115 0.0671753 7.80269 0.201526C7.93423 0.335878 8 0.50687 8 0.714503C8 0.922137 7.93423 1.09313 7.80269 1.22748L4.50224 4.59847C4.43049 4.67176 4.35277 4.72354 4.26906 4.75383C4.18535 4.78461 4.09566 4.8 4 4.8Z" fill="#52596B"/>
</svg>