<svg width="32" height="32" viewBox="0 0 32 32" fill="none" xmlns="http://www.w3.org/2000/svg">
<rect width="32" height="32" rx="16" fill="#5546FF"/>
<path fill-rule="evenodd" clip-rule="evenodd" d="M16 25C16.2063 25 16.4041 24.921 16.5499 24.7803C16.6957 24.6397 16.7777 24.449 16.7777 24.2501V10.5617L21.6708 15.2818C21.8168 15.4226 22.0148 15.5017 22.2213 15.5017C22.4279 15.5017 22.6259 15.4226 22.7719 15.2818C22.918 15.141 23 14.95 23 14.7508C23 14.5517 22.918 14.3607 22.7719 14.2199L16.5506 8.22032C16.4784 8.15048 16.3925 8.09507 16.2981 8.05727C16.2036 8.01946 16.1023 8 16 8C15.8977 8 15.7964 8.01946 15.7019 8.05727C15.6075 8.09507 15.5216 8.15048 15.4494 8.22032L9.22806 14.2199C9.15576 14.2896 9.0984 14.3724 9.05927 14.4635C9.02014 14.5546 9 14.6522 9 14.7508C9 14.95 9.08204 15.141 9.22806 15.2818C9.37409 15.4226 9.57214 15.5017 9.77865 15.5017C9.98516 15.5017 10.1832 15.4226 10.3292 15.2818L15.2223 10.5617V24.2501C15.2223 24.449 15.3043 24.6397 15.4501 24.7803C15.5959 24.921 15.7937 25 16 25Z" fill="#F5F6FA"/>
</svg>
