<svg width="32" height="32" viewBox="0 0 32 32" fill="none" xmlns="http://www.w3.org/2000/svg">
<g filter="url(#filter0_d_1151_684)">
<path d="M16 4C19.1826 4 22.2348 5.26428 24.4853 7.51472C26.7357 9.76515 28 12.8174 28 16C28 19.1826 26.7357 22.2348 24.4853 24.4853C22.2348 26.7357 19.1826 28 16 28C12.8174 28 9.76515 26.7357 7.51472 24.4853C5.26428 22.2348 4 19.1826 4 16C4 12.8174 5.26428 9.76515 7.51472 7.51472C9.76515 5.26428 12.8174 4 16 4ZM16 14.5446L13.2126 11.7571C13.0196 11.5641 12.7578 11.4557 12.4849 11.4557C12.2119 11.4557 11.9501 11.5641 11.7571 11.7571C11.5641 11.9501 11.4557 12.2119 11.4557 12.4849C11.4557 12.7578 11.5641 13.0196 11.7571 13.2126L14.5446 16L11.7571 18.7874C11.6616 18.883 11.5858 18.9964 11.5341 19.1213C11.4823 19.2462 11.4557 19.38 11.4557 19.5151C11.4557 19.6503 11.4823 19.7841 11.5341 19.909C11.5858 20.0338 11.6616 20.1473 11.7571 20.2429C11.8527 20.3384 11.9662 20.4142 12.091 20.4659C12.2159 20.5177 12.3497 20.5443 12.4849 20.5443C12.62 20.5443 12.7538 20.5177 12.8787 20.4659C13.0036 20.4142 13.117 20.3384 13.2126 20.2429L16 17.4554L18.7874 20.2429C18.883 20.3384 18.9964 20.4142 19.1213 20.4659C19.2462 20.5177 19.38 20.5443 19.5151 20.5443C19.6503 20.5443 19.7841 20.5177 19.909 20.4659C20.0338 20.4142 20.1473 20.3384 20.2429 20.2429C20.3384 20.1473 20.4142 20.0338 20.4659 19.909C20.5177 19.7841 20.5443 19.6503 20.5443 19.5151C20.5443 19.38 20.5177 19.2462 20.4659 19.1213C20.4142 18.9964 20.3384 18.883 20.2429 18.7874L17.4554 16L20.2429 13.2126C20.3384 13.117 20.4142 13.0036 20.4659 12.8787C20.5177 12.7538 20.5443 12.62 20.5443 12.4849C20.5443 12.3497 20.5177 12.2159 20.4659 12.091C20.4142 11.9662 20.3384 11.8527 20.2429 11.7571C20.1473 11.6616 20.0338 11.5858 19.909 11.5341C19.7841 11.4823 19.6503 11.4557 19.5151 11.4557C19.38 11.4557 19.2462 11.4823 19.1213 11.5341C18.9964 11.5858 18.883 11.6616 18.7874 11.7571L16 14.5446Z" fill="white" fill-opacity="0.8" shape-rendering="crispEdges"/>
</g>
<defs>
<filter id="filter0_d_1151_684" x="-1" y="-1" width="34" height="34" filterUnits="userSpaceOnUse" color-interpolation-filters="sRGB">
<feFlood flood-opacity="0" result="BackgroundImageFix"/>
<feColorMatrix in="SourceAlpha" type="matrix" values="0 0 0 0 0 0 0 0 0 0 0 0 0 0 0 0 0 0 127 0" result="hardAlpha"/>
<feOffset/>
<feGaussianBlur stdDeviation="2.5"/>
<feComposite in2="hardAlpha" operator="out"/>
<feColorMatrix type="matrix" values="0 0 0 0 0 0 0 0 0 0 0 0 0 0 0 0 0 0 0.15 0"/>
<feBlend mode="normal" in2="BackgroundImageFix" result="effect1_dropShadow_1151_684"/>
<feBlend mode="normal" in="SourceGraphic" in2="effect1_dropShadow_1151_684" result="shape"/>
</filter>
</defs>
</svg>
